solid ASCII
  facet normal 0.000000e+00 0.000000e+00 -1.000000e+00
    outer loop
      vertex   1.000000e+01 -1.000000e+01 -1.000000e+01
      vertex   -1.000000e+01 -1.000000e+01 -1.000000e+01
      vertex   1.000000e+01 1.000000e+01 -1.000000e+01
    endloop
  endfacet
  facet normal 0.000000e+00 0.000000e+00 -1.000000e+00
    outer loop
      vertex   1.000000e+01 1.000000e+01 -1.000000e+01
      vertex   -1.000000e+01 -1.000000e+01 -1.000000e+01
      vertex   -1.000000e+01 1.000000e+01 -1.000000e+01
    endloop
  endfacet
  facet normal -0.000000e+00 -1.000000e+00 -0.000000e+00
    outer loop
      vertex   1.000000e+01 -1.000000e+01 1.000000e+01
      vertex   -1.000000e+01 -1.000000e+01 1.000000e+01
      vertex   1.000000e+01 -1.000000e+01 -1.000000e+01
    endloop
  endfacet
  facet normal 0.000000e+00 -1.000000e+00 0.000000e+00
    outer loop
      vertex   1.000000e+01 -1.000000e+01 -1.000000e+01
      vertex   -1.000000e+01 -1.000000e+01 1.000000e+01
      vertex   -1.000000e+01 -1.000000e+01 -1.000000e+01
    endloop
  endfacet
  facet normal -1.000000e+00 -2.664535e-16 -0.000000e+00
    outer loop
      vertex   -1.000000e+01 -1.000000e+01 1.000000e+01
      vertex   -1.000000e+01 1.000000e+01 1.000000e+01
      vertex   -1.000000e+01 -1.000000e+01 -1.000000e+01
    endloop
  endfacet
  facet normal -1.000000e+00 -2.664535e-16 0.000000e+00
    outer loop
      vertex   -1.000000e+01 -1.000000e+01 -1.000000e+01
      vertex   -1.000000e+01 1.000000e+01 1.000000e+01
      vertex   -1.000000e+01 1.000000e+01 -1.000000e+01
    endloop
  endfacet
  facet normal -8.881784e-17 1.000000e+00 0.000000e+00
    outer loop
      vertex   -1.000000e+01 1.000000e+01 1.000000e+01
      vertex   1.000000e+01 1.000000e+01 1.000000e+01
      vertex   -1.000000e+01 1.000000e+01 -1.000000e+01
    endloop
  endfacet
  facet normal -8.881784e-17 1.000000e+00 0.000000e+00
    outer loop
      vertex   -1.000000e+01 1.000000e+01 -1.000000e+01
      vertex   1.000000e+01 1.000000e+01 1.000000e+01
      vertex   1.000000e+01 1.000000e+01 -1.000000e+01
    endloop
  endfacet
  facet normal 1.000000e+00 1.776357e-16 0.000000e+00
    outer loop
      vertex   1.000000e+01 1.000000e+01 1.000000e+01
      vertex   1.000000e+01 -1.000000e+01 1.000000e+01
      vertex   1.000000e+01 1.000000e+01 -1.000000e+01
    endloop
  endfacet
  facet normal 1.000000e+00 1.776357e-16 0.000000e+00
    outer loop
      vertex   1.000000e+01 1.000000e+01 -1.000000e+01
      vertex   1.000000e+01 -1.000000e+01 1.000000e+01
      vertex   1.000000e+01 -1.000000e+01 -1.000000e+01
    endloop
  endfacet
  facet normal 0.000000e+00 0.000000e+00 1.000000e+00
    outer loop
      vertex   1.000000e+01 1.000000e+01 1.000000e+01
      vertex   -1.000000e+01 1.000000e+01 1.000000e+01
      vertex   1.000000e+01 -1.000000e+01 1.000000e+01
    endloop
  endfacet
  facet normal 0.000000e+00 0.000000e+00 1.000000e+00
    outer loop
      vertex   1.000000e+01 -1.000000e+01 1.000000e+01
      vertex   -1.000000e+01 1.000000e+01 1.000000e+01
      vertex   -1.000000e+01 -1.000000e+01 1.000000e+01
    endloop
  endfacet
endsolid
